<?xml version="1.0" encoding="UTF-8"?>
<!-- Created with Inkscape (http://www.inkscape.org/) -->
<svg width="64" height="64" version="1.1" viewBox="0 0 16.933 16.933" xmlns="http://www.w3.org/2000/svg">
 <g transform="matrix(.30404 0 0 .30404 -8.1292 -6.8695)" stroke-linecap="round" stroke-linejoin="round">
  <g fill="#e7a27a" stroke="#b57f5f" stroke-width=".456">
   <path d="m34.7 56.26s-0.90421 0.75718-1.2361 1.2361c-0.29851 0.43075-0.6506 1.4313-0.6506 1.4313s0.98884-0.27076 1.4964-0.32529c0.38812-0.0417 1.1711 0 1.1711 0z"/>
   <path d="m36.879 61.11s-0.79795 0.86844-1.0647 1.3865c-0.2399 0.46594-0.45875 1.5038-0.45875 1.5038s0.94518-0.39719 1.4413-0.51732c0.37939-0.0919 1.1611-0.15244 1.1611-0.15244z"/>
   <path d="m39.875 65.869s-0.60575 1.0119-0.76215 1.5732c-0.14067 0.50484-0.14501 1.5655-0.14501 1.5655s0.84527-0.5802 1.3068-0.79822c0.35296-0.16672 1.1062-0.3842 1.1062-0.3842z"/>
   <path d="m43.452 70.128s-0.23073 1.1566-0.18954 1.7378c0.037 0.52276 0.38918 1.5233 0.38918 1.5233s0.60133-0.83038 0.96284-1.1907c0.27647-0.27558 0.91297-0.73341 0.91297-0.73341z"/>
   <path d="m48.648 73.073s0.0371 1.1788 0.20888 1.7356c0.15445 0.50079 0.72398 1.3956 0.72398 1.3956s0.39769-0.94496 0.66822-1.3778c0.20689-0.33102 0.7232-0.92108 0.7232-0.92108z"/>
   <path d="m55.548 75.222s0.43609 1.0958 0.78707 1.5609c0.31566 0.41834 1.1557 1.0659 1.1557 1.0659s0.0528-1.0239 0.15947-1.523c0.0819-0.38166 0.36657-1.1122 0.36657-1.1122z"/>
   <path d="m63.302 74.341s0.82996 0.83791 1.3349 1.1287c0.45415 0.26155 1.4806 0.52896 1.4806 0.52896s-0.35189-0.96296-0.44894-1.464c-0.0739-0.38329-0.0977-1.167-0.0977-1.167z"/>
   <path d="m69.384 70.574s1.1076 0.40526 1.6883 0.45364c0.52227 0.0435 1.5649-0.15111 1.5649-0.15111s-0.72809-0.72179-1.0291-1.134c-0.22993-0.31545-0.58485-1.0146-0.58485-1.0146z"/>
   <path d="m73.208 64.777s1.1688 0.15728 1.7463 0.0795c0.51939-0.07 1.4957-0.48451 1.4957-0.48451s-0.86643-0.5481-1.2491-0.88581c-0.29246-0.25854-0.78958-0.86485-0.78958-0.86485z"/>
  </g>
  <g fill="#82803c" stroke="#4f4e24" stroke-width=".456">
   <path d="m42.637 51.4s0.86823-2.0053 1.6561-2.7142c0.47933-0.43126 1.1264-0.65719 1.7481-0.82807 0.78715-0.21634 1.6408-0.40498 2.4382-0.23002 0.53693 0.11782 1.0601 0.41793 1.4261 0.82807 0.17831 0.19982 0.26719 0.47393 0.32203 0.73606 0.0345 0.16511 0 0.50604 0 0.50604l-5.6585 4.9224z"/>
   <path d="m51.654 58.76s1.018 0.95845 1.6561 1.1961c0.82226 0.30621 1.7453 0.26123 2.6222 0.23002 0.77599-0.0276 1.5494-0.16999 2.3002-0.36803 1.0604-0.27969 2.2391-0.44889 3.0822-1.1501 0.1375-0.11435 0.27602-0.46004 0.27602-0.46004l3.2203 1.7941-3.7723 4.0943-5.7505 0.46004-4.8304-1.6561-1.2421-3.1283z"/>
   <path d="m60.211 59.266s-1.8265-1.7184-2.2542-2.8522c-0.30891-0.81895-0.27512-1.7577-0.13801-2.6222 0.0669-0.4219 0.14843-0.9039 0.46004-1.1961 0.18751-0.17583 0.60711-0.28192 0.86257-0.31053 0.3822-0.0428 1.0236 0.17252 1.0236 0.17252l3.4963 4.7844z"/>
   <path d="m44.387 32.692s-2.6981 3.1179-3.2306 4.7158c-1.0019 3.0063-1.0549 6.4002-0.39035 9.4986 0.54916 2.5603 3.5132 7.0264 3.5132 7.0264s0.69771-1.8651 1.4313-2.4722c1.4161-1.1719 3.3779-2.0252 5.2047-1.8216 1.22 0.13593 2.5432 0.86973 3.1228 1.9518 0.71716 1.3387 0.5088 3.1764-0.13012 4.5541-0.7107 1.5325-3.7734 3.3831-3.7734 3.3831s1.1144 3.9423 7.2025 4.0258c4.7537 0.0652 6.7964-3.5671 6.7964-3.5671s-1.624-0.72076-2.2882-1.4996c-0.98182-1.1513-1.938-2.5274-2.0819-4.0337-0.14613-1.5302 0.0944-3.4719 1.3012-4.424 1.3297-1.0491 3.4363-0.69021 5.0746-0.26024 1.4897 0.39099 3.9035 2.4722 3.9035 2.4722s0.4974-0.3849 0.65059-0.65059c0.67263-1.1666 0.96941-2.5588 1.0409-3.9036 0.10492-1.9725-0.16081-4.028-0.91082-5.8553-0.873-2.127-4.2806-5.2885-4.0337-5.5951 0.28578-0.35483 2.9372 1.14 4.0337 2.212 2.2927 2.2415 3.8038 5.2846 4.8144 8.3276 0.93598 2.8183 1.2938 5.8891 1.041 8.848-0.27338 3.1997-1.2294 6.4006-2.7325 9.2384-1.6012 3.0231-3.7754 5.8763-6.5059 7.9372-2.2638 1.7086-4.217 2.5388-7.0264 2.9277-2.2542 0.31203-5.3845 0.25393-7.5468-0.45542-4.039-1.325-8.14-3.1549-11.19-6.1156-3.571-3.4661-6.0466-8.1367-7.5469-12.882-1.745-5.519-2.0293-11.548-1.4313-17.306 0.43948-4.2313 1.1351-8.7951 3.6433-12.231 1.2696-1.7393 3.2274-3.2009 5.3348-3.6433 1.382-0.2901 2.7657 0.58238 4.1638 0.78071 1.3374 0.18972 2.7122 0.10993 4.0337 0.39036 0.53668 0.11389 1.1794 0.1267 1.5614 0.52047 0.63061 0.65002 0.79442 1.6968 0.78071 2.6024-0.0145 0.95999-0.35241 1.9515-0.91083 2.7325-0.66601 0.93146-1.6929 1.6019-2.7325 2.0819-0.92684 0.42795-1.9719 0.64208-2.9927 0.65059-0.4423 0.0037-0.90026-0.07341-1.3012-0.26024-0.7552-0.35191-1.9518-1.5614-1.9518-1.5614"/>
  </g>
  <ellipse transform="rotate(-15.241)" cx="33.58" cy="35.912" rx="1.3846" ry=".98729" stroke="#000" stroke-width=".33756"/>
 </g>
</svg>
